<svg width="21" height="20" viewBox="0 0 21 20" fill="none" xmlns="http://www.w3.org/2000/svg">
<path d="M4.5 3.76486H5.5V2.76486V1.54909L5.50014 1.54799C5.50033 1.54723 5.50128 1.54376 5.50455 1.53747C5.51127 1.52458 5.52902 1.49791 5.56853 1.46589C5.65003 1.39983 5.79891 1.33331 6 1.33331C6.20109 1.33331 6.34997 1.39983 6.43147 1.46589C6.47098 1.49791 6.48873 1.52458 6.49545 1.53747C6.49872 1.54376 6.49967 1.54723 6.49986 1.54799L6.5 1.54909V2.76486V3.76486H7.5H13.5H14.5V2.76486V1.54909L14.5001 1.54799C14.5003 1.54723 14.5013 1.54376 14.5046 1.53747C14.5113 1.52458 14.529 1.49791 14.5685 1.46589C14.65 1.39983 14.7989 1.33331 15 1.33331C15.2011 1.33331 15.35 1.39983 15.4315 1.46589C15.471 1.49791 15.4887 1.52458 15.4954 1.53747C15.4987 1.54376 15.4997 1.54723 15.4999 1.54799L15.5 1.54909V2.76486V3.76486H16.5H18.75C19.6464 3.76486 20 4.32002 20 4.58852V5.41218H1V4.58852C1 4.32002 1.35358 3.76486 2.25 3.76486H4.5ZM1 17.962V8.62796H20V17.962C20 18.2305 19.6464 18.7857 18.75 18.7857H2.25C1.35358 18.7857 1 18.2305 1 17.962Z" stroke="white" stroke-width="2"/>
</svg>
