<svg width="14" height="14" viewBox="0 0 14 14" fill="none" xmlns="http://www.w3.org/2000/svg">
<path d="M5.45754 1.84806C5.45754 1.0899 6.07265 0.474785 6.83081 0.474785H7.74633C8.5045 0.474785 9.11961 1.0899 9.11961 1.84806V11.9188C9.11961 12.6769 8.5045 13.292 7.74633 13.292H6.83081C6.07265 13.292 5.45754 12.6769 5.45754 11.9188V1.84806ZM0.879944 7.34117C0.879944 6.58301 1.49506 5.96789 2.25322 5.96789H3.16874C3.9269 5.96789 4.54202 6.58301 4.54202 7.34117V11.9188C4.54202 12.6769 3.9269 13.292 3.16874 13.292H2.25322C1.49506 13.292 0.879944 12.6769 0.879944 11.9188V7.34117ZM11.4084 2.30582H12.3239C13.0821 2.30582 13.6972 2.92094 13.6972 3.6791V11.9188C13.6972 12.6769 13.0821 13.292 12.3239 13.292H11.4084C10.6502 13.292 10.0351 12.6769 10.0351 11.9188V3.6791C10.0351 2.92094 10.6502 2.30582 11.4084 2.30582Z" fill="white"/>
</svg>
