<svg width="26" height="16" viewBox="0 0 26 16" fill="none" xmlns="http://www.w3.org/2000/svg">
<path d="M8.18703 0.498272C4.08284 0.498272 0.753021 3.79938 0.753021 7.86819C0.753021 11.937 4.08284 15.2381 8.18703 15.2381H18.099C22.2032 15.2381 25.5331 11.937 25.5331 7.86819C25.5331 3.79938 22.2032 0.498272 18.099 0.498272H8.18703ZM19.9575 4.49031C20.3683 4.49031 20.7622 4.65208 21.0527 4.94002C21.3431 5.22797 21.5063 5.6185 21.5063 6.02571C21.5063 6.43293 21.3431 6.82346 21.0527 7.11141C20.7622 7.39935 20.3683 7.56111 19.9575 7.56111C19.5468 7.56111 19.1529 7.39935 18.8624 7.11141C18.572 6.82346 18.4088 6.43293 18.4088 6.02571C18.4088 5.6185 18.572 5.22797 18.8624 4.94002C19.1529 4.65208 19.5468 4.49031 19.9575 4.49031ZM15.9308 9.71068C15.9308 9.30346 16.094 8.91293 16.3844 8.62498C16.6749 8.33704 17.0688 8.17527 17.4795 8.17527C17.8903 8.17527 18.2842 8.33704 18.5747 8.62498C18.8651 8.91293 19.0283 9.30346 19.0283 9.71068C19.0283 10.1179 18.8651 10.5084 18.5747 10.7964C18.2842 11.0843 17.8903 11.2461 17.4795 11.2461C17.0688 11.2461 16.6749 11.0843 16.3844 10.7964C16.094 10.5084 15.9308 10.1179 15.9308 9.71068ZM7.25778 5.71863C7.25778 5.20811 7.67207 4.79739 8.18703 4.79739C8.70199 4.79739 9.11628 5.20811 9.11628 5.71863V6.94695H10.3553C10.8702 6.94695 11.2845 7.35767 11.2845 7.86819C11.2845 8.37872 10.8702 8.78944 10.3553 8.78944H9.11628V10.0178C9.11628 10.5283 8.70199 10.939 8.18703 10.939C7.67207 10.939 7.25778 10.5283 7.25778 10.0178V8.78944H6.01878C5.50382 8.78944 5.08953 8.37872 5.08953 7.86819C5.08953 7.35767 5.50382 6.94695 6.01878 6.94695H7.25778V5.71863Z" fill="white"/>
</svg>
