<svg width="21" height="21" viewBox="0 0 21 21" fill="none" xmlns="http://www.w3.org/2000/svg">
<g clip-path="url(#clip0_2456_2658)">
<path d="M10.5552 13.1467C11.9359 13.1467 13.0552 12.0274 13.0552 10.6467C13.0552 9.26597 11.9359 8.14668 10.5552 8.14668C9.17449 8.14668 8.05521 9.26597 8.05521 10.6467C8.05521 12.0274 9.17449 13.1467 10.5552 13.1467Z" stroke="#6A5AE0" stroke-width="2" stroke-linecap="round" stroke-linejoin="round"/>
<path d="M10.5552 18.1467V18.155" stroke="#6A5AE0" stroke-width="2" stroke-linecap="round" stroke-linejoin="round"/>
<path d="M3.05521 8.14668V8.15502" stroke="#6A5AE0" stroke-width="2" stroke-linecap="round" stroke-linejoin="round"/>
<path d="M18.0552 8.14668V8.15502" stroke="#6A5AE0" stroke-width="2" stroke-linecap="round" stroke-linejoin="round"/>
<path d="M7.22187 17.3967C6.08466 16.842 5.10626 16.0086 4.37774 14.9741C3.64922 13.9396 3.19426 12.7376 3.05521 11.48" stroke="#6A5AE0" stroke-width="2" stroke-linecap="round" stroke-linejoin="round"/>
<path d="M13.8885 17.3967C15.0258 16.842 16.0042 16.0086 16.7327 14.9741C17.4612 13.9396 17.9162 12.7376 18.0552 11.48" stroke="#6A5AE0" stroke-width="2" stroke-linecap="round" stroke-linejoin="round"/>
<path d="M5.72186 4.81334C7.06194 3.71664 8.74023 3.11743 10.4719 3.11743C12.2035 3.11743 13.8818 3.71664 15.2219 4.81334" stroke="#6A5AE0" stroke-width="2" stroke-linecap="round" stroke-linejoin="round"/>
</g>
<defs>
<clipPath id="clip0_2456_2658">
<rect width="20" height="20" fill="white" transform="translate(0.555206 0.646683)"/>
</clipPath>
</defs>
</svg>
