<svg width="27" height="37" viewBox="0 0 27 37" fill="none" xmlns="http://www.w3.org/2000/svg">
<path d="M18.75 7.21875H8.25C7.00781 7.21875 5.99531 8.22266 6.04219 9.43841C6.05156 9.68248 6.06094 9.92655 6.075 10.166H1.125C0.501562 10.166 0 10.6588 0 11.2712C0 15.5356 1.57031 18.5013 3.67969 20.5137C5.75625 22.4985 8.2875 23.4978 10.1531 24.0043C11.25 24.3037 12 25.2017 12 26.1043C12 27.0667 11.2031 27.8496 10.2234 27.8496H9C8.17031 27.8496 7.5 28.5081 7.5 29.3232C7.5 30.1383 8.17031 30.7969 9 30.7969H18C18.8297 30.7969 19.5 30.1383 19.5 29.3232C19.5 28.5081 18.8297 27.8496 18 27.8496H16.7766C15.7969 27.8496 15 27.0667 15 26.1043C15 25.2017 15.7453 24.2991 16.8469 24.0043C18.7172 23.4978 21.2484 22.4985 23.325 20.5137C25.4297 18.5013 27 15.5356 27 11.2712C27 10.6588 26.4984 10.166 25.875 10.166H20.925C20.9391 9.92655 20.9484 9.68708 20.9578 9.43841C21.0047 8.22266 19.9922 7.21875 18.75 7.21875ZM2.29219 12.3765H6.24844C6.675 16.5257 7.61719 19.2979 8.68125 21.1538C7.51406 20.6472 6.3 19.9334 5.25 18.9295C3.75 17.4973 2.53125 15.4296 2.29688 12.3765H2.29219ZM21.7547 18.9295C20.7047 19.9334 19.4906 20.6472 18.3234 21.1538C19.3875 19.2979 20.3297 16.5257 20.7562 12.3765H24.7125C24.4734 15.4296 23.2547 17.4973 21.7594 18.9295H21.7547Z" fill="white"/>
</svg>
